<svg width="78" height="80" viewBox="0 0 78 80" fill="none" xmlns="http://www.w3.org/2000/svg">
<g filter="url(#filter0_d)">
<circle cx="33.4127" cy="31.4166" r="25.8951" fill="#F84B40"/>
<path d="M70.3519 76.0053L55.6289 61.2823C55.6289 61.2823 55.7487 58.6608 56.7837 57.5294C57.9148 56.2927 60.8253 56.0859 60.8253 56.0859L75.5482 70.8089C75.5482 70.8089 75.2152 73.4515 74.1048 74.5618C72.9945 75.6722 70.3519 76.0053 70.3519 76.0053Z" fill="#B5817E"/>
<path d="M62.9639 31.4162C62.9639 47.7376 49.7327 60.9688 33.4113 60.9688C17.0898 60.9688 3.85865 47.7376 3.85865 31.4162C3.85865 15.0947 17.0898 1.86354 33.4113 1.86354C49.7327 1.86354 62.9639 15.0947 62.9639 31.4162Z" stroke="#B5817E" stroke-width="3.71731"/>
<path fill-rule="evenodd" clip-rule="evenodd" d="M50.1643 50.354C45.704 54.3022 39.8387 56.6989 33.4136 56.6989C31.4282 56.6989 29.4962 56.47 27.6426 56.0373V39.2773H39.4919V50.354H50.1643ZM27.6423 56.0372V47.2631H15.793V49.5469C19.0269 52.6905 23.0991 54.9764 27.6423 56.0372Z" fill="white"/>
<path d="M38.4495 28.6348C38.5194 31.2442 35.6876 34.7904 35.6876 34.7904C35.6876 34.7904 37.1541 30.6012 35.6876 28.6348C33.2251 25.3328 28.6575 36.5661 28.6575 36.5661C28.6575 36.5661 28.7531 31.37 30.6661 28.1613C33.0445 24.1721 29.568 23.9292 28.0298 21.5322C26.1449 18.595 27.5357 16.8383 27.5357 16.8383C27.5357 16.8383 27.1634 18.9623 30.164 20.2301C31.1644 20.6528 33.428 20.2301 33.428 20.2301C33.428 20.2301 32.126 17.8233 33.428 17.1523C34.2023 16.7532 34.898 16.8831 35.6677 17.2901C36.957 17.9718 35.0601 20.2301 35.0601 20.2301C35.0601 20.2301 37.2943 21.0005 38.073 20.2301C40.0431 18.2807 40.0815 15.0215 40.0815 15.0215C40.0815 15.0215 40.5982 18.6952 39.3284 21.5322C38.4251 23.5502 36.943 24.2549 36.943 24.2549C36.943 24.2549 38.4013 26.8372 38.4495 28.6348Z" fill="white"/>
</g>
<defs>
<filter id="filter0_d" x="0.0512837" y="0.00488281" width="77.4457" height="79.8978" filterUnits="userSpaceOnUse" color-interpolation-filters="sRGB">
<feFlood flood-opacity="0" result="BackgroundImageFix"/>
<feColorMatrix in="SourceAlpha" type="matrix" values="0 0 0 0 0 0 0 0 0 0 0 0 0 0 0 0 0 0 127 0"/>
<feOffset dy="1.94872"/>
<feGaussianBlur stdDeviation="0.974358"/>
<feColorMatrix type="matrix" values="0 0 0 0 0 0 0 0 0 0 0 0 0 0 0 0 0 0 0.25 0"/>
<feBlend mode="normal" in2="BackgroundImageFix" result="effect1_dropShadow"/>
<feBlend mode="normal" in="SourceGraphic" in2="effect1_dropShadow" result="shape"/>
</filter>
</defs>
</svg>
