<svg width="136" height="134" viewBox="0 0 136 134" fill="none" xmlns="http://www.w3.org/2000/svg">
<path d="M121.375 92.5431L122.472 93.5664L122.472 93.5664L121.375 92.5431ZM25.1307 95.8586C24.3645 96.1737 23.9988 97.0502 24.3138 97.8163L29.4473 110.302C29.7623 111.068 30.6388 111.434 31.405 111.119C32.1712 110.804 32.537 109.928 32.222 109.161L27.6588 98.0629L38.7574 93.4997C39.5236 93.1847 39.8893 92.3082 39.5743 91.542C39.2593 90.7758 38.3828 90.4101 37.6166 90.7251L25.1307 95.8586ZM72.06 11.7716C71.1807 12.9868 71.1807 12.9869 71.1811 12.9871C71.1816 12.9875 71.1822 12.9879 71.1831 12.9886C71.1851 12.99 71.1882 12.9922 71.1923 12.9953C71.2007 13.0014 71.2135 13.0107 71.2307 13.0232C71.2651 13.0482 71.317 13.0861 71.3856 13.1365C71.523 13.2372 71.7277 13.3881 71.9943 13.5864C72.5277 13.9832 73.3088 14.5703 74.2954 15.3279C76.2687 16.8434 79.0627 19.0402 82.3383 21.7609C88.8944 27.2063 97.3578 34.7318 105.03 43.0787C112.723 51.4482 119.521 60.5393 122.866 69.1122C126.194 77.6431 126.016 85.3692 120.278 91.5199L122.472 93.5664C129.289 86.2587 129.225 77.1592 125.661 68.0219C122.113 58.9268 115.013 49.5073 107.238 41.0485C99.4428 32.5671 90.8691 24.9466 84.2551 19.4531C80.9457 16.7043 78.1213 14.4835 76.1226 12.9486C75.1231 12.181 74.3298 11.5848 73.7851 11.1796C73.5128 10.9769 73.3026 10.8221 73.1599 10.7174C73.0885 10.665 73.034 10.6252 72.9971 10.5983C72.9786 10.5848 72.9645 10.5746 72.9548 10.5676C72.95 10.5641 72.9463 10.5614 72.9437 10.5595C72.9424 10.5586 72.9413 10.5578 72.9407 10.5574C72.9399 10.5568 72.9394 10.5564 72.06 11.7716ZM120.278 91.5199C105.831 107.007 82.593 108.282 62.5098 105.455C52.5271 104.05 43.4595 101.649 36.883 99.5964C33.5969 98.5708 30.938 97.6339 29.1039 96.9547C28.187 96.6152 27.4766 96.3402 26.9974 96.1509C26.7578 96.0563 26.5761 95.9831 26.4553 95.934C26.3949 95.9095 26.3497 95.8909 26.3201 95.8788C26.3054 95.8727 26.2945 95.8682 26.2876 95.8653C26.2841 95.8639 26.2817 95.8629 26.2802 95.8622C26.2795 95.8619 26.2791 95.8618 26.2787 95.8616C26.2786 95.8616 26.2788 95.8616 25.7011 97.246C25.1235 98.6303 25.1241 98.6305 25.125 98.6309C25.1256 98.6312 25.1268 98.6316 25.128 98.6322C25.1305 98.6332 25.1341 98.6347 25.1386 98.6366C25.1476 98.6403 25.1606 98.6457 25.1775 98.6527C25.2114 98.6666 25.2609 98.6869 25.3258 98.7133C25.4554 98.766 25.6463 98.8428 25.8953 98.9412C26.3933 99.1378 27.1238 99.4206 28.0621 99.768C29.9385 100.463 32.6471 101.417 35.9893 102.46C42.6694 104.545 51.9017 106.991 62.0917 108.426C82.3539 111.278 106.953 110.201 122.472 93.5664L120.278 91.5199Z" fill="white"/>
</svg>
