<svg width="144" height="374" viewBox="0 0 144 374" fill="none" xmlns="http://www.w3.org/2000/svg">
<path d="M137 -1.42555e-06C140.866 -1.93252e-06 144 3.134 144 7L144 324C144 327.866 140.866 331 137 331L94.0001 331C90.1341 331 87.0001 327.866 87.0001 324L87 7C87 3.13401 90.134 4.72018e-06 94 4.21322e-06L137 -1.42555e-06Z" fill="white" fill-opacity="0.116"/>
<path d="M50.0001 192C53.8661 192 57.0001 195.134 57.0001 199L57.0001 367C57.0001 370.866 53.8661 374 50.0001 374L7.00007 374C3.13408 374 6.99471e-05 370.866 6.94401e-05 367L4.74096e-05 199C4.69026e-05 195.134 3.13405 192 7.00005 192L50.0001 192Z" fill="white" fill-opacity="0.06"/>
</svg>
