<svg width="144" height="374" viewBox="0 0 144 374" fill="none" xmlns="http://www.w3.org/2000/svg">
<path d="M6.99994 -1.42555e-06C3.13395 -1.93252e-06 -6.18608e-05 3.134 -6.23677e-05 7L-0.000103937 324C-0.000104444 327.866 3.1339 331 6.9999 331L49.9999 331C53.8659 331 56.9999 327.866 56.9999 324L57 7C57 3.13401 53.866 4.72018e-06 50 4.21322e-06L6.99994 -1.42555e-06Z" fill="white" fill-opacity="0.116"/>
<path d="M93.9999 192C90.1339 192 86.9999 195.134 86.9999 199L86.9999 367C86.9999 370.866 90.1339 374 93.9999 374L137 374C140.866 374 144 370.866 144 367L144 199C144 195.134 140.866 192 137 192L93.9999 192Z" fill="white" fill-opacity="0.06"/>
</svg>
