<svg width="91" height="116" viewBox="0 0 91 116" fill="none" xmlns="http://www.w3.org/2000/svg">
<path d="M41.4804 7.17187C34.063 -0.801659 29.8964 -1.7422 22.4804 7.17187C22.4804 7.17187 22.4805 27.9504 22.4804 47.6719C22.4803 66.2218 18.0864 77.1233 22.4799 95.1719C24.5124 103.522 27.9804 115.672 27.9804 115.672L87.9804 115.672C87.9804 115.672 89.9092 103.217 90.4804 95.1719C91.8514 75.8649 87.9804 45.6719 87.9804 45.6719C82.2891 41.0356 78.5052 40.7576 72.9804 45.6719C67.3052 41.8484 64.1512 41.3143 58.4804 45.6719C52.4715 40.9704 48.8537 40.105 41.4804 45.6719L41.4804 7.17187Z" fill="#F84B40"/>
<path d="M41.6992 45.5V56.5" stroke="#8F2D27" stroke-width="1.3"/>
<path d="M59.1992 45.5V56.5" stroke="#8F2D27" stroke-width="1.3"/>
<path d="M73.1992 45.5V56.5" stroke="#8F2D27" stroke-width="1.3"/>
<path d="M21.9805 36.834L41.4805 33.834" stroke="#8F2D27" stroke-width="2" stroke-linecap="round"/>
<path d="M41.4805 38.1719L22.4805 33.6719" stroke="#8F2D27" stroke-width="2" stroke-linecap="round" stroke-linejoin="round"/>
<path d="M22.262 34.0308C22.262 34.0308 18.4605 26.519 12.9802 25.8344C8.65966 25.2946 4.79496 24.4106 6.3246 29.6435C7.39871 33.318 13.6501 34.8889 16.9567 34.9547L22.0716 34.3373M22.0716 34.3373C21.0342 37.2834 18.9289 37.9184 18.4805 40.834C18.0607 43.5633 16.912 46.5605 14.9805 46.834C10.3818 47.4852 9.33731 49.4066 8.82656 45.4569C8.35324 41.7966 13.5718 38.3372 13.5718 38.3372C13.5718 38.3372 19.8556 34.775 22.0716 34.3373Z" stroke="#8F2D27" stroke-width="2"/>
<path d="M22.9776 34.6713C14.658 34.586 26.3665 47.0727 17.9805 51.1719" stroke="#8F2D27" stroke-width="2"/>
</svg>
