<svg width="187" height="71" viewBox="0 0 187 71" fill="none" xmlns="http://www.w3.org/2000/svg">
<path d="M90.4248 22.6033V35.6087H101.487C101.487 35.6087 101.829 28.8042 104.776 26.3405C108.493 23.2323 114.158 23.7131 118.229 26.3405C121.722 28.5942 122.415 35.6087 122.415 35.6087H146.333C146.333 35.6087 147.341 29.4068 150.668 27.2374C154.042 25.0371 158.73 24.8623 162.477 26.3405C167.014 28.1304 167.411 35.6087 167.411 35.6087H186.844L185.199 28.7323L169.204 19.3146L165.318 18.2682L146.333 6.90721C141.738 4.29796 138.455 3.27033 122.265 6.15977C120.067 7.69923 118.857 8.4244 116.436 11.3918L110.755 14.531H107.317L101.935 8.55156L110.755 9.89695L112.698 6.15977L84.4453 0.927734L85.3422 6.15977L93.4145 8.55156L97.4507 19.3146L90.4248 22.6033Z" fill="#8F2D27"/>
<circle cx="111.5" cy="34.4133" r="8.37127" fill="#8F2D27"/>
<circle cx="157.244" cy="35.6086" r="8.37127" fill="#8F2D27"/>
<path d="M78.4443 48.9129V61.9183H89.5063C89.5063 61.9183 89.8488 55.1137 92.7951 52.6501C96.5121 49.5418 102.178 50.0227 106.249 52.6501C109.741 54.9038 110.435 61.9183 110.435 61.9183H134.352C134.352 61.9183 135.361 55.7164 138.688 53.547C142.062 51.3467 146.75 51.1718 150.497 52.6501C155.034 54.4399 155.43 61.9183 155.43 61.9183H174.863L173.219 55.0419L157.224 45.6242L153.337 44.5778L134.352 33.2168C129.758 30.6075 126.475 29.5799 110.285 32.4693C108.087 34.0088 106.876 34.734 104.455 37.7014L98.7745 40.8406H95.3363L89.9548 34.8611L98.7745 36.2065L100.718 32.4693L72.4648 27.2373L73.3618 32.4693L81.4341 34.8611L85.4702 45.6242L78.4443 48.9129Z" fill="#F84B40"/>
<circle cx="99.5217" cy="60.7228" r="8.37127" fill="#F84B40"/>
<circle cx="145.266" cy="61.9181" r="8.37127" fill="#F84B40"/>
<path d="M69.1967 4.06641H0.283203" stroke="#8F2D27" stroke-width="4.48461"/>
<path d="M67.8346 20.9453L11.832 20.9455" stroke="#8F2D27" stroke-width="4.48461"/>
<path d="M65.1341 37.8252H21.6035" stroke="#F84B40" stroke-width="4.48461"/>
<path d="M65.1346 54.7041H34.9297" stroke="#F84B40" stroke-width="4.48461"/>
</svg>
