<svg width="110" height="111" viewBox="0 0 110 111" fill="none" xmlns="http://www.w3.org/2000/svg">
<circle cx="55.1197" cy="55.4595" r="54.6353" fill="#F84B40"/>
<circle cx="55.1198" cy="55.4596" r="48.4167" fill="#8F2D27"/>
<path d="M59.6219 33.6867C56.3838 30.5773 52.3813 29.7573 47.7556 31.4204C41.963 33.503 40.7346 35.0081 32.7565 43.485C29.3825 42.4116 29.494 46.8848 30.167 48.8207C32.956 51.0721 34.6678 49.6367 37.1231 47.6607C37.6583 45.8361 38.2597 42.4491 41.0217 41.7213C42.9337 40.6555 45.6318 39.5896 47.5438 38.5237C49.3139 39.9067 53.2396 40.9897 53.6209 42.5659C50.0529 46.0835 46.2749 49.4021 42.8575 53.0623C41.5181 54.225 41.673 54.7568 41.3269 56.2046C40.3454 59.9857 39.2386 62.7491 39.442 67.0458C35.9388 70.3367 34.0344 73.4385 30.1741 75.6986C28.8229 76.1785 29.3087 77.3027 29.2219 78.4202C28.9932 81.2675 28.0386 84.4939 29.9532 86.3501C32.1246 88.4553 39.4755 88.1957 39.0254 86.7798C37.6926 83.5994 34.8354 81.4674 36.7882 79.3146C42.5881 74.9982 41.9632 75.9461 46.3119 72.8434C48.0985 71.5687 51.233 68.6593 49.6558 66.8473C46.1026 64.079 41.1045 61.588 36.778 61.0459C34.1092 59.2849 28.6432 58.9265 29.2611 63.8672C29.9719 66.8843 24.4977 71.4968 28.8069 73.0857C31.2653 71.2558 32.5604 65.996 36.4065 67.9969C44.8208 69.8423 49.0818 72.3076 57.6624 71.8447C62.0982 71.8162 62.129 66.858 60.4588 63.6711C58.4869 60.8138 60.3044 60.162 64.2797 56.5803C66.8083 54.302 66.8875 53.3673 69.0151 50.887C71.04 52.8381 75.6789 54.8691 78.1964 54.8285C82.4976 52.8235 86.7988 50.8186 91.1 48.8136C90.6045 46.5365 91.6114 43.6039 90.2846 42.2833H85.8365L85.0797 45.4874L86.8469 45.8735L84.9895 46.9807L76.8713 47.9185L70.952 40.4714C69.4181 37.8349 73.7168 43.9657 76.2892 39.1572L80.2094 31.7322C81.0937 30.0572 79.7578 27.3493 79.1091 26.2292C77.2128 22.9549 71.5859 23.4689 68.7277 25.8859C66.2387 27.9906 65.6768 33.0163 63.5503 35.0715L59.6219 33.6867Z" fill="#C43E36"/>
<path d="M61.3973 33.6867C58.1592 30.5773 54.1567 29.7573 49.531 31.4204C43.7384 33.503 42.51 35.0081 34.5319 43.485C31.1579 42.4116 31.2694 46.8848 31.9424 48.8207C34.7314 51.0721 36.4432 49.6367 38.8985 47.6607C39.4337 45.8361 40.0351 42.4491 42.7971 41.7213C44.7091 40.6555 47.4072 39.5896 49.3192 38.5237C51.0892 39.9067 55.0149 40.9897 55.3963 42.5659C51.8283 46.0835 48.0503 49.4021 44.6329 53.0623C43.2935 54.225 43.4484 54.7568 43.1023 56.2046C42.1208 59.9857 41.014 62.7491 41.2174 67.0458C37.7142 70.3367 35.8097 73.4385 31.9495 75.6986C30.5983 76.1785 31.0841 77.3027 30.9973 78.4202C30.7686 81.2675 29.814 84.4939 31.7286 86.3501C33.9 88.4553 41.2508 88.1957 40.8008 86.7798C39.468 83.5994 36.6108 81.4674 38.5636 79.3146C44.3635 74.9982 43.7386 75.9461 48.0873 72.8434C49.8739 71.5687 53.0084 68.6593 51.4312 66.8473C47.8779 64.079 42.8799 61.588 38.5534 61.0459C35.8846 59.2849 30.4186 58.9265 31.0365 63.8672C31.7473 66.8843 26.2731 71.4968 30.5823 73.0857C33.0407 71.2558 34.3357 65.996 38.1819 67.9969C46.5962 69.8423 50.8572 72.3076 59.4378 71.8447C63.8736 71.8162 63.9044 66.858 62.2342 63.6711C60.2623 60.8138 62.0798 60.162 66.0551 56.5803C68.5836 54.302 68.6629 53.3673 70.7904 50.887C72.8154 52.8381 77.4542 54.8691 79.9718 54.8285C84.273 52.8235 88.5742 50.8186 92.8754 48.8136C92.3799 46.5365 93.3867 43.6039 92.06 42.2833H87.6119L86.8551 45.4874L88.6223 45.8735L86.7649 46.9807L78.6467 47.9185L72.7274 40.4714C71.1935 37.8349 75.4922 43.9657 78.0646 39.1572L81.9848 31.7322C82.8691 30.0572 81.5332 27.3493 80.8845 26.2292C78.9882 22.9549 73.3613 23.4689 70.5031 25.8859C68.0141 27.9906 67.4522 33.0163 65.3256 35.0715L61.3973 33.6867Z" fill="#F84B40"/>
</svg>
