<svg width="159" height="164" viewBox="0 0 159 164" fill="none" xmlns="http://www.w3.org/2000/svg">
<g filter="url(#filter0_d)">
<circle cx="68.4755" cy="64.4755" r="53.1532" fill="#F84B40"/>
<path d="M144.303 156L114.082 125.779C114.082 125.779 114.328 120.399 116.452 118.076C118.774 115.538 124.748 115.113 124.748 115.113L154.969 145.334C154.969 145.334 154.285 150.758 152.006 153.038C149.727 155.317 144.303 156 144.303 156Z" fill="#B5817E"/>
<path d="M129.136 64.4758C129.136 97.9778 101.978 125.136 68.4758 125.136C34.9738 125.136 7.81514 97.9778 7.81514 64.4758C7.81514 30.9738 34.9738 3.81514 68.4758 3.81514C101.978 3.81514 129.136 30.9738 129.136 64.4758Z" stroke="#B5817E" stroke-width="7.63027"/>
<path fill-rule="evenodd" clip-rule="evenodd" d="M102.86 103.347C93.7042 111.451 81.6644 116.371 68.4755 116.371C54.411 116.371 41.6533 110.776 32.3066 101.691V97.0024H56.6288V80.6104H80.9512V103.347H102.86Z" fill="white"/>
<path d="M78.8193 58.7655C78.9629 64.1215 73.1503 71.4006 73.1503 71.4006C73.1503 71.4006 76.1603 62.8017 73.1503 58.7655C68.0956 51.9875 58.72 75.0454 58.72 75.0454C58.72 75.0454 58.9163 64.3798 62.8429 57.7935C67.7248 49.605 60.589 49.1065 57.4316 44.1864C53.5626 38.1573 56.4173 34.5515 56.4173 34.5515C56.4173 34.5515 55.6531 38.9113 61.8122 41.5136C63.8657 42.3812 68.512 41.5136 68.512 41.5136C68.512 41.5136 65.8394 36.5734 68.512 35.196C70.1014 34.3768 71.5295 34.6435 73.1094 35.4789C75.7558 36.8782 71.8621 41.5136 71.8621 41.5136C71.8621 41.5136 76.4482 43.095 78.0465 41.5136C82.0905 37.5123 82.1693 30.8223 82.1693 30.8223C82.1693 30.8223 83.2299 38.3631 80.6233 44.1864C78.7692 48.3286 75.7271 49.775 75.7271 49.775C75.7271 49.775 78.7204 55.0756 78.8193 58.7655Z" fill="white"/>
</g>
<defs>
<filter id="filter0_d" x="0" y="0" width="158.969" height="164" filterUnits="userSpaceOnUse" color-interpolation-filters="sRGB">
<feFlood flood-opacity="0" result="BackgroundImageFix"/>
<feColorMatrix in="SourceAlpha" type="matrix" values="0 0 0 0 0 0 0 0 0 0 0 0 0 0 0 0 0 0 127 0"/>
<feOffset dy="4"/>
<feGaussianBlur stdDeviation="2"/>
<feColorMatrix type="matrix" values="0 0 0 0 0 0 0 0 0 0 0 0 0 0 0 0 0 0 0.25 0"/>
<feBlend mode="normal" in2="BackgroundImageFix" result="effect1_dropShadow"/>
<feBlend mode="normal" in="SourceGraphic" in2="effect1_dropShadow" result="shape"/>
</filter>
</defs>
</svg>
