<svg width="374" height="144" viewBox="0 0 374 144" fill="none" xmlns="http://www.w3.org/2000/svg">
<path d="M374 137C374 140.866 370.866 144 367 144L50 144C46.134 144 43 140.866 43 137L43 94.0001C43 90.1341 46.134 87.0001 50 87.0001L367 87C370.866 87 374 90.134 374 94L374 137Z" fill="white" fill-opacity="0.116"/>
<path d="M182 50.0001C182 53.8661 178.866 57.0001 175 57.0001L7.00002 57.0001C3.13402 57.0001 -2.73978e-07 53.8661 -6.11954e-07 50.0001L-4.37113e-06 7.00007C-4.70911e-06 3.13407 3.134 6.14133e-05 7 6.10754e-05L175 4.63883e-05C178.866 4.60504e-05 182 3.13405 182 7.00005L182 50.0001Z" fill="white" fill-opacity="0.06"/>
</svg>
