<svg width="500" height="117" viewBox="0 0 500 117" fill="none" xmlns="http://www.w3.org/2000/svg">
<path d="M175.241 65.7639C173.081 66.7128 170.378 67.1873 167.131 67.1873C157.68 67.1873 152.954 62.5364 152.954 53.2345C152.954 44.4321 157.761 40.0308 167.375 40.0308C170.309 40.0308 172.931 40.4678 175.241 41.3418V45.8367C172.931 44.8378 170.434 44.3384 167.749 44.3384C161.319 44.3384 158.104 47.3038 158.104 53.2345C158.104 59.6646 161.138 62.8797 167.206 62.8797C168.105 62.8797 169.129 62.7299 170.278 62.4302V54.6391H175.241V65.7639ZM185.553 67H180.459L191.827 40.2181H197.164L208.776 67H203.439L200.386 59.6959H191.49L193.194 55.3883H198.588L194.374 45.331L185.553 67ZM214.93 67V40.2181H220.081L229.164 60.5386L238.06 40.2181H243.023V67H238.435V48.3463L231.168 67H226.935L219.519 48.3463V67H214.93ZM256.482 40.2181V67H251.519V40.2181H256.482ZM282.582 40.2181V44.4882H269.921V51.2305H281.945V55.6692H269.865V67H264.996V40.2181H282.582ZM294.636 40.2181V67H289.672V40.2181H294.636ZM324.5 65.8763C322.19 66.7503 319.568 67.1873 316.634 67.1873C307.02 67.1873 302.213 62.5364 302.213 53.2345C302.213 44.4321 307.02 40.0308 316.634 40.0308C319.568 40.0308 322.19 40.4678 324.5 41.3418V45.8367C322.19 44.8378 319.693 44.3384 317.009 44.3384C310.579 44.3384 307.363 47.3038 307.363 53.2345C307.363 59.6646 310.579 62.8797 317.009 62.8797C319.693 62.8797 322.19 62.3803 324.5 61.3814V65.8763ZM334.812 67H329.718L341.086 40.2181H346.424L358.036 67H352.698L349.645 59.6959H340.749L342.453 55.3883H347.847L343.633 45.331L334.812 67ZM381.701 40.2181V44.5257H374.022V67H369.059V44.5257H361.38V40.2181H381.701ZM392.369 40.2181V67H387.406V40.2181H392.369ZM405.097 53.5341C405.097 59.7645 407.862 62.8797 413.393 62.8797C418.787 62.8797 421.484 59.7645 421.484 53.5341C421.484 47.4037 418.787 44.3384 413.393 44.3384C407.862 44.3384 405.097 47.4037 405.097 53.5341ZM399.946 53.6465C399.946 44.5694 404.429 40.0308 413.393 40.0308C422.221 40.0308 426.635 44.5694 426.635 53.6465C426.635 62.6737 422.221 67.1873 413.393 67.1873C404.828 67.1873 400.346 62.6737 399.946 53.6465ZM434.212 67V40.2181H439.175L453.315 59.7333V40.2181H458.091V67H453.128L438.988 47.0728V67H434.212Z" fill="white"/>
<g filter="url(#filter0_d)">
<circle cx="57.783" cy="54.783" r="53.783" fill="#F84B40"/>
<circle cx="57.7814" cy="54.7834" r="38.6135" fill="white"/>
<circle cx="57.7839" cy="54.7829" r="24.8229" fill="#F84B40"/>
<circle cx="57.7826" cy="54.7835" r="12.4115" fill="#8F2D27"/>
</g>
<defs>
<filter id="filter0_d" x="0" y="1" width="115.566" height="115.566" filterUnits="userSpaceOnUse" color-interpolation-filters="sRGB">
<feFlood flood-opacity="0" result="BackgroundImageFix"/>
<feColorMatrix in="SourceAlpha" type="matrix" values="0 0 0 0 0 0 0 0 0 0 0 0 0 0 0 0 0 0 127 0"/>
<feOffset dy="4"/>
<feGaussianBlur stdDeviation="2"/>
<feColorMatrix type="matrix" values="0 0 0 0 0 0 0 0 0 0 0 0 0 0 0 0 0 0 0.25 0"/>
<feBlend mode="normal" in2="BackgroundImageFix" result="effect1_dropShadow"/>
<feBlend mode="normal" in="SourceGraphic" in2="effect1_dropShadow" result="shape"/>
</filter>
</defs>
</svg>
