<svg width="100" height="88" viewBox="0 0 100 88" fill="none" xmlns="http://www.w3.org/2000/svg">
<path d="M86.7649 54.8065L85.8104 54.0553L86.7649 54.8065ZM10.9773 51.7314C10.3335 51.9202 9.96473 52.5951 10.1535 53.2388L13.2298 63.729C13.4186 64.3727 14.0935 64.7416 14.7372 64.5528C15.381 64.364 15.7498 63.6891 15.561 63.0454L12.8265 53.7207L22.1511 50.9862C22.7949 50.7974 23.1637 50.1226 22.9749 49.4788C22.7861 48.8351 22.1112 48.4663 21.4675 48.6551L10.9773 51.7314ZM64.337 7.04204C63.7048 8.0792 63.7047 8.0791 63.7047 8.0791C63.7049 8.07922 63.705 8.07932 63.7054 8.07957C63.7062 8.08006 63.7077 8.08094 63.7097 8.08218C63.7138 8.08467 63.7202 8.08865 63.7291 8.09411C63.7468 8.10503 63.774 8.12187 63.8104 8.14452C63.8831 8.18981 63.9922 8.25835 64.1348 8.34932C64.42 8.53129 64.8388 8.80292 65.3672 9.15777C66.4242 9.86766 67.9179 10.9095 69.6556 12.2318C73.1366 14.8807 77.5703 18.6349 81.4335 23.0809C85.3074 27.5391 88.5349 32.6102 89.725 37.8903C90.9006 43.1064 90.1078 48.5946 85.8104 54.0553L87.7195 55.5577C92.488 49.4983 93.4246 43.2559 92.0949 37.3561C90.7796 31.5204 87.2669 26.0904 83.2673 21.4875C79.2571 16.8724 74.6841 13.0055 71.1267 10.2986C69.3453 8.94297 67.8119 7.87326 66.7216 7.14105C66.1764 6.77484 65.7415 6.49279 65.4415 6.30133C65.2914 6.20559 65.175 6.13248 65.0953 6.08281C65.0555 6.05797 65.0248 6.03899 65.0036 6.02597C64.9931 6.01946 64.9849 6.01444 64.9792 6.01092C64.9763 6.00916 64.974 6.00777 64.9724 6.00677C64.9715 6.00626 64.9708 6.00579 64.9704 6.00554C64.9697 6.00516 64.9693 6.00487 64.337 7.04204ZM85.8104 54.0553C75.4823 67.1793 57.3306 66.8867 41.2138 62.982C33.2235 61.0462 25.8895 58.2569 20.5467 55.947C17.8774 54.7929 15.7103 53.7608 14.2129 53.0185C13.4643 52.6474 12.8834 52.3488 12.4911 52.1439C12.295 52.0414 12.1461 51.9624 12.0469 51.9094C11.9973 51.8829 11.9602 51.8629 11.9359 51.8497C11.9237 51.8431 11.9148 51.8383 11.909 51.8351C11.9062 51.8336 11.9041 51.8325 11.9029 51.8318C11.9022 51.8314 11.9019 51.8313 11.9016 51.8311C11.9015 51.831 11.9016 51.8311 11.3191 52.897C10.7366 53.9629 10.7371 53.9631 10.7378 53.9635C10.7383 53.9638 10.7392 53.9643 10.7402 53.9648C10.7423 53.966 10.7451 53.9675 10.7488 53.9695C10.7561 53.9735 10.7667 53.9792 10.7804 53.9867C10.808 54.0016 10.8484 54.0233 10.9013 54.0516C11.0071 54.1082 11.1629 54.1909 11.3662 54.2971C11.7727 54.5095 12.3689 54.8158 13.1339 55.195C14.6636 55.9534 16.8693 57.0037 19.5826 58.1768C25.005 60.5211 32.4753 63.3646 40.6418 65.3431C56.8384 69.267 76.4096 69.9292 87.7195 55.5577L85.8104 54.0553Z" fill="#F84B40"/>
</svg>
