<svg width="328" height="126" viewBox="0 0 328 126" fill="none" xmlns="http://www.w3.org/2000/svg">
<path d="M327.006 118.903C327.006 122.769 323.872 125.903 320.006 125.903L44.6021 125.903C40.7361 125.903 37.6021 122.769 37.6021 118.903L37.6021 83.0665C37.6021 79.2005 40.7361 76.0665 44.6021 76.0665L320.006 76.0664C323.872 76.0664 327.006 79.2005 327.006 83.0664L327.006 118.903Z" fill="white" fill-opacity="0.116"/>
<path d="M159.135 42.837C159.135 46.703 156.001 49.837 152.135 49.837L7.00642 49.837C3.14043 49.837 0.00642368 46.703 0.00642334 42.837L0.00642021 7.00007C0.00641987 3.13408 3.14042 7.08579e-05 7.00642 7.05199e-05L152.135 5.78324e-05C156.001 5.74944e-05 159.135 3.13406 159.135 7.00006L159.135 42.837Z" fill="white" fill-opacity="0.06"/>
</svg>
