<svg width="65" height="65" viewBox="0 0 65 65" fill="none" xmlns="http://www.w3.org/2000/svg">
<g filter="url(#filter0_d)">
<circle cx="32.5" cy="29.5" r="29.5" fill="#B5817E"/>
<circle cx="32.5009" cy="29.4999" r="25.3837" fill="#8F2D27"/>
<circle cx="32.4994" cy="29.5004" r="23.3256" fill="#F84B40"/>
<path fill-rule="evenodd" clip-rule="evenodd" d="M29.3578 23.1954C29.3578 23.1954 27.1921 21.9861 26.4549 20.6795C25.3779 18.7706 25.3553 16.9631 26.4549 15.0672C27.018 14.0964 28.487 13.0352 28.487 13.0352V18.4539L30.7125 20.6795H33.9057L36.0347 18.4539V13.0352C36.0347 13.0352 37.6003 14.0964 38.1634 15.0672C39.263 16.9631 39.2285 18.764 38.1634 20.6795C37.4481 21.9658 35.3572 23.1954 35.3572 23.1954C35.3572 23.1954 34.4127 35.9496 34.6799 39.1614C34.738 39.8611 34.8744 40.3739 35.0097 40.8825C35.1844 41.5394 35.3572 42.1892 35.3572 43.2255C35.3572 44.8609 34.2756 46.2608 32.6478 46.4187C30.8657 46.5916 29.3578 45.0159 29.3578 43.2255C29.3578 42.3792 29.5204 41.7228 29.6896 41.0398C29.8299 40.4733 29.9747 39.8884 30.0352 39.1614C30.3023 35.9496 29.3578 23.1954 29.3578 23.1954ZM32.4135 44.7738C33.2686 44.7738 33.9617 44.0806 33.9617 43.2255C33.9617 42.3705 33.2686 41.6773 32.4135 41.6773C31.5584 41.6773 30.8653 42.3705 30.8653 43.2255C30.8653 44.0806 31.5584 44.7738 32.4135 44.7738Z" fill="white"/>
<path d="M26.4549 20.6795L26.1178 20.8697H26.1178L26.4549 20.6795ZM29.3578 23.1954L29.7438 23.1668L29.7285 22.959L29.5465 22.8574L29.3578 23.1954ZM26.4549 15.0672L26.1201 14.873L26.4549 15.0672ZM28.487 13.0352H28.874V12.278L28.2603 12.7214L28.487 13.0352ZM28.487 18.4539H28.0999V18.6143L28.2133 18.7276L28.487 18.4539ZM30.7125 20.6795L30.4388 20.9532L30.5522 21.0666H30.7125V20.6795ZM33.9057 20.6795V21.0666H34.0711L34.1854 20.9471L33.9057 20.6795ZM36.0347 18.4539L36.3144 18.7215L36.4218 18.6092V18.4539H36.0347ZM36.0347 13.0352L36.2519 12.7148L35.6477 12.3052V13.0352H36.0347ZM38.1634 15.0672L37.8285 15.2614L38.1634 15.0672ZM38.1634 20.6795L37.8251 20.4914L38.1634 20.6795ZM35.3572 23.1954L35.161 22.8617L34.9862 22.9645L34.9712 23.1668L35.3572 23.1954ZM34.6799 39.1614L35.0656 39.1293L34.6799 39.1614ZM35.0097 40.8825L35.3837 40.783L35.0097 40.8825ZM32.6478 46.4187L32.6852 46.8039H32.6852L32.6478 46.4187ZM29.6896 41.0398L30.0653 41.1328L29.6896 41.0398ZM30.0352 39.1614L29.6495 39.1293L30.0352 39.1614ZM26.1178 20.8697C26.5295 21.5994 27.3138 22.2691 27.9536 22.7393C28.2802 22.9793 28.5825 23.1768 28.8031 23.3144C28.9136 23.3833 29.0041 23.4374 29.0674 23.4746C29.099 23.4932 29.1239 23.5076 29.1412 23.5174C29.1498 23.5224 29.1565 23.5262 29.1612 23.5288C29.1636 23.5302 29.1654 23.5312 29.1667 23.5319C29.1674 23.5323 29.1679 23.5326 29.1683 23.5328C29.1685 23.533 29.1687 23.5331 29.1688 23.5331C29.1689 23.5332 29.169 23.5332 29.169 23.5332C29.1691 23.5333 29.1691 23.5333 29.3578 23.1954C29.5465 22.8574 29.5466 22.8574 29.5466 22.8575C29.5466 22.8575 29.5467 22.8575 29.5467 22.8575C29.5467 22.8575 29.5466 22.8575 29.5466 22.8574C29.5464 22.8574 29.5462 22.8572 29.5458 22.857C29.5451 22.8566 29.5438 22.8559 29.542 22.8549C29.5385 22.8529 29.5329 22.8497 29.5255 22.8455C29.5107 22.837 29.4883 22.8241 29.4593 22.8071C29.4013 22.773 29.3168 22.7224 29.2127 22.6576C29.0043 22.5276 28.719 22.3411 28.412 22.1155C27.7847 21.6544 27.1175 21.0661 26.792 20.4893L26.1178 20.8697ZM26.1201 14.873C25.5421 15.8697 25.2486 16.8622 25.2516 17.8697C25.2547 18.8763 25.5538 19.87 26.1178 20.8697L26.792 20.4893C26.2791 19.5801 26.0283 18.7156 26.0257 17.8673C26.0232 17.0198 26.2682 16.1607 26.7897 15.2614L26.1201 14.873ZM28.487 13.0352C28.2603 12.7214 28.2603 12.7214 28.2602 12.7215C28.2602 12.7215 28.2601 12.7215 28.2601 12.7216C28.26 12.7216 28.2599 12.7217 28.2597 12.7218C28.2594 12.722 28.2591 12.7223 28.2586 12.7226C28.2577 12.7233 28.2564 12.7242 28.2548 12.7254C28.2516 12.7278 28.247 12.7311 28.2411 12.7354C28.2293 12.7441 28.2123 12.7567 28.1907 12.7729C28.1475 12.8053 28.0857 12.8522 28.0101 12.9113C27.8591 13.0295 27.6517 13.1975 27.4258 13.3971C26.9832 13.7881 26.4348 14.3304 26.1201 14.873L26.7897 15.2614C27.0381 14.8332 27.5057 14.3594 27.9384 13.9772C28.1501 13.7901 28.3452 13.6321 28.4872 13.521C28.5581 13.4655 28.6155 13.4219 28.6548 13.3924C28.6745 13.3777 28.6896 13.3665 28.6996 13.3592C28.7046 13.3555 28.7083 13.3528 28.7107 13.3511C28.7118 13.3502 28.7127 13.3496 28.7132 13.3492C28.7134 13.349 28.7136 13.3489 28.7137 13.3489C28.7137 13.3488 28.7137 13.3488 28.7137 13.3488C28.7137 13.3488 28.7137 13.3489 28.7137 13.3489C28.7137 13.3489 28.7136 13.3489 28.487 13.0352ZM28.874 18.4539V13.0352H28.0999V18.4539H28.874ZM30.9862 20.4058L28.7607 18.1802L28.2133 18.7276L30.4388 20.9532L30.9862 20.4058ZM33.9057 20.2924H30.7125V21.0666H33.9057V20.2924ZM35.755 18.1864L33.6261 20.4119L34.1854 20.9471L36.3144 18.7215L35.755 18.1864ZM35.6477 13.0352V18.4539H36.4218V13.0352H35.6477ZM38.4982 14.873C38.1803 14.3249 37.6023 13.7805 37.1364 13.3904C36.8979 13.1907 36.6781 13.0227 36.5178 12.9046C36.4375 12.8454 36.3719 12.7985 36.3259 12.7662C36.3029 12.75 36.2849 12.7374 36.2723 12.7288C36.2661 12.7244 36.2612 12.7211 36.2577 12.7187C36.256 12.7176 36.2547 12.7167 36.2537 12.716C36.2532 12.7157 36.2528 12.7154 36.2525 12.7152C36.2524 12.7151 36.2522 12.715 36.2521 12.7149C36.2521 12.7149 36.252 12.7149 36.252 12.7148C36.252 12.7148 36.2519 12.7148 36.0347 13.0352C35.8176 13.3555 35.8175 13.3555 35.8175 13.3555C35.8175 13.3555 35.8175 13.3555 35.8175 13.3555C35.8175 13.3555 35.8175 13.3555 35.8175 13.3555C35.8176 13.3556 35.8178 13.3557 35.818 13.3559C35.8186 13.3562 35.8195 13.3568 35.8207 13.3577C35.8233 13.3594 35.8272 13.3622 35.8326 13.3658C35.8432 13.3732 35.8594 13.3844 35.8803 13.3991C35.9221 13.4286 35.9832 13.4722 36.0585 13.5277C36.2093 13.6389 36.4161 13.7969 36.6394 13.9839C37.097 14.3671 37.5833 14.8386 37.8285 15.2614L38.4982 14.873ZM38.5016 20.8676C39.0587 19.8658 39.3575 18.8731 39.3622 17.8678C39.3669 16.8613 39.0765 15.8702 38.4982 14.873L37.8285 15.2614C38.3498 16.1601 38.592 17.0173 38.5881 17.8642C38.5841 18.7122 38.3332 19.5776 37.8251 20.4914L38.5016 20.8676ZM35.3572 23.1954C35.5534 23.529 35.5535 23.529 35.5535 23.5289C35.5536 23.5289 35.5536 23.5289 35.5537 23.5288C35.5538 23.5288 35.554 23.5287 35.5542 23.5285C35.5546 23.5283 35.5551 23.528 35.5557 23.5276C35.557 23.5269 35.5588 23.5258 35.5611 23.5245C35.5656 23.5218 35.5721 23.5179 35.5804 23.5129C35.5971 23.5029 35.6211 23.4883 35.6517 23.4694C35.7128 23.4317 35.8001 23.3769 35.9068 23.3072C36.1199 23.168 36.4117 22.9685 36.7272 22.7272C37.3454 22.2545 38.1027 21.5851 38.5016 20.8676L37.8251 20.4914C37.5088 21.0603 36.863 21.6488 36.2569 22.1124C35.9602 22.3393 35.6847 22.5276 35.4834 22.6591C35.3829 22.7248 35.3013 22.776 35.2452 22.8106C35.2172 22.8279 35.1956 22.841 35.1813 22.8496C35.1741 22.8539 35.1688 22.8571 35.1654 22.8591C35.1637 22.8601 35.1624 22.8609 35.1617 22.8613C35.1613 22.8615 35.1611 22.8617 35.161 22.8617C35.1609 22.8618 35.1609 22.8618 35.1609 22.8618C35.1609 22.8618 35.1609 22.8618 35.1609 22.8618C35.161 22.8617 35.161 22.8617 35.3572 23.1954ZM35.0656 39.1293C34.9348 37.5569 35.1014 33.5979 35.3048 29.9958C35.4061 28.2026 35.5157 26.5095 35.6 25.2645C35.6421 24.6421 35.6779 24.1318 35.7032 23.7772C35.7159 23.5999 35.7259 23.4615 35.7327 23.3675C35.7361 23.3204 35.7387 23.2845 35.7405 23.2604C35.7414 23.2483 35.7421 23.2392 35.7425 23.2331C35.7428 23.23 35.7429 23.2277 35.743 23.2262C35.7431 23.2254 35.7431 23.2249 35.7432 23.2245C35.7432 23.2243 35.7432 23.2242 35.7432 23.2241C35.7432 23.224 35.7432 23.2239 35.3572 23.1954C34.9712 23.1668 34.9712 23.1668 34.9712 23.1669C34.9712 23.167 34.9712 23.1672 34.9712 23.1674C34.9711 23.1678 34.9711 23.1684 34.971 23.1692C34.9709 23.1707 34.9707 23.1731 34.9705 23.1761C34.9701 23.1823 34.9694 23.1915 34.9685 23.2037C34.9667 23.228 34.9641 23.2641 34.9606 23.3113C34.9538 23.4057 34.9437 23.5444 34.9311 23.7221C34.9057 24.0776 34.8698 24.5888 34.8276 25.2122C34.7432 26.4591 34.6334 28.1552 34.5319 29.9521C34.3299 33.53 34.1578 37.5541 34.2941 39.1935L35.0656 39.1293ZM35.3837 40.783C35.2489 40.276 35.1207 39.792 35.0656 39.1293L34.2941 39.1935C34.3554 39.9302 34.5 40.4718 34.6356 40.982L35.3837 40.783ZM35.7443 43.2255C35.7443 42.1372 35.5605 41.4478 35.3837 40.783L34.6356 40.982C34.8083 41.6311 34.9701 42.2412 34.9701 43.2255H35.7443ZM32.6852 46.8039C34.5431 46.6237 35.7443 45.0266 35.7443 43.2255H34.9701C34.9701 44.6952 34.0081 45.8978 32.6104 46.0334L32.6852 46.8039ZM28.9708 43.2255C28.9708 45.209 30.6417 47.0022 32.6852 46.8039L32.6104 46.0334C31.0897 46.181 29.7449 44.8229 29.7449 43.2255H28.9708ZM29.3139 40.9467C29.1448 41.6293 28.9708 42.3269 28.9708 43.2255H29.7449C29.7449 42.4314 29.896 41.8164 30.0653 41.1328L29.3139 40.9467ZM29.6495 39.1293C29.5919 39.822 29.4543 40.3798 29.3139 40.9467L30.0653 41.1328C30.2055 40.5668 30.3576 39.9547 30.4209 39.1935L29.6495 39.1293ZM29.3578 23.1954C28.9718 23.2239 28.9718 23.224 28.9719 23.2241C28.9719 23.2242 28.9719 23.2243 28.9719 23.2245C28.9719 23.2249 28.972 23.2254 28.972 23.2262C28.9721 23.2277 28.9723 23.23 28.9725 23.2331C28.973 23.2392 28.9736 23.2483 28.9745 23.2604C28.9763 23.2845 28.9789 23.3204 28.9824 23.3675C28.9892 23.4615 28.9992 23.5999 29.0118 23.7772C29.0371 24.1318 29.0729 24.6421 29.1151 25.2645C29.1994 26.5095 29.309 28.2026 29.4103 29.9958C29.6137 33.5979 29.7802 37.5569 29.6495 39.1293L30.4209 39.1935C30.5573 37.5541 30.3852 33.53 30.1831 29.9521C30.0817 28.1552 29.9719 26.4591 29.8874 25.2122C29.8452 24.5888 29.8093 24.0776 29.784 23.7221C29.7713 23.5444 29.7613 23.4057 29.7544 23.3113C29.751 23.2641 29.7483 23.228 29.7466 23.2037C29.7457 23.1915 29.745 23.1823 29.7445 23.1761C29.7443 23.1731 29.7441 23.1707 29.744 23.1692C29.744 23.1684 29.7439 23.1678 29.7439 23.1674C29.7439 23.1672 29.7439 23.167 29.7439 23.1669C29.7438 23.1668 29.7438 23.1668 29.3578 23.1954ZM33.5747 43.2255C33.5747 43.8668 33.0548 44.3867 32.4135 44.3867V45.1608C33.4823 45.1608 34.3488 44.2944 34.3488 43.2255H33.5747ZM32.4135 42.0644C33.0548 42.0644 33.5747 42.5843 33.5747 43.2255H34.3488C34.3488 42.1567 33.4823 41.2903 32.4135 41.2903V42.0644ZM31.2523 43.2255C31.2523 42.5843 31.7722 42.0644 32.4135 42.0644V41.2903C31.3447 41.2903 30.4782 42.1567 30.4782 43.2255H31.2523ZM32.4135 44.3867C31.7722 44.3867 31.2523 43.8668 31.2523 43.2255H30.4782C30.4782 44.2944 31.3447 45.1608 32.4135 45.1608V44.3867Z" fill="#8F2D27"/>
</g>
<defs>
<filter id="filter0_d" x="0.255814" y="0" width="64.4884" height="64.4884" filterUnits="userSpaceOnUse" color-interpolation-filters="sRGB">
<feFlood flood-opacity="0" result="BackgroundImageFix"/>
<feColorMatrix in="SourceAlpha" type="matrix" values="0 0 0 0 0 0 0 0 0 0 0 0 0 0 0 0 0 0 127 0"/>
<feOffset dy="2.74419"/>
<feGaussianBlur stdDeviation="1.37209"/>
<feColorMatrix type="matrix" values="0 0 0 0 0 0 0 0 0 0 0 0 0 0 0 0 0 0 0.25 0"/>
<feBlend mode="normal" in2="BackgroundImageFix" result="effect1_dropShadow"/>
<feBlend mode="normal" in="SourceGraphic" in2="effect1_dropShadow" result="shape"/>
</filter>
</defs>
</svg>
