<svg width="195" height="177" viewBox="0 0 195 177" fill="none" xmlns="http://www.w3.org/2000/svg">
<path d="M58.9445 79.0209L57.4445 79.0208L58.9445 79.0209ZM60.0045 173.561C59.4187 174.147 58.4689 174.147 57.8831 173.561L48.337 164.015C47.7512 163.43 47.7511 162.48 48.3369 161.894C48.9227 161.308 49.8724 161.308 50.4582 161.894L58.9437 170.379L67.4288 161.894C68.0146 161.308 68.9643 161.308 69.5501 161.894C70.1359 162.479 70.1359 163.429 69.5502 164.015L60.0045 173.561ZM154.52 29.3949C154.178 30.8553 154.178 30.8554 154.178 30.8553C154.177 30.8552 154.177 30.8551 154.176 30.8548C154.173 30.8543 154.17 30.8534 154.165 30.8522C154.154 30.8499 154.138 30.8462 154.117 30.8413C154.074 30.8315 154.008 30.8166 153.921 30.7972C153.746 30.7583 153.483 30.7011 153.14 30.6292C152.452 30.4854 151.439 30.2827 150.147 30.0495C147.562 29.583 143.864 28.995 139.424 28.5123C130.534 27.5458 118.723 27.0074 106.944 28.6853C95.152 30.3653 83.5334 34.2466 74.8795 42.0005C66.2776 49.7078 60.4447 61.3842 60.4445 79.0209L57.4445 79.0208C57.4447 60.6475 63.5589 48.1156 72.8775 39.7662C82.1441 31.4633 94.4193 27.4394 106.521 25.7153C118.636 23.9893 130.719 24.5482 139.749 25.5299C144.269 26.0214 148.038 26.6203 150.68 27.0972C152.001 27.3356 153.041 27.5437 153.754 27.6928C154.11 27.7673 154.385 27.8271 154.571 27.8685C154.665 27.8893 154.736 27.9054 154.785 27.9166C154.809 27.9221 154.828 27.9264 154.841 27.9294C154.847 27.9309 154.852 27.9321 154.856 27.9329C154.858 27.9334 154.859 27.9337 154.86 27.9339C154.861 27.9342 154.862 27.9344 154.52 29.3949ZM60.4445 79.0209C60.444 121.286 60.4438 144.656 60.4438 157.46C60.4437 163.862 60.4437 167.622 60.4437 169.781C60.4437 170.861 60.4438 171.541 60.4438 171.951C60.4438 172.156 60.4438 172.293 60.4438 172.379C60.4438 172.422 60.4438 172.453 60.4438 172.472C60.4438 172.482 60.4438 172.489 60.4438 172.494C60.4438 172.496 60.4438 172.498 60.4438 172.499C60.4438 172.499 60.4438 172.5 60.4438 172.5C60.4438 172.5 60.4438 172.5 60.4438 172.5C60.4438 172.5 60.4438 172.5 58.9438 172.5C57.4438 172.501 57.4438 172.5 57.4438 172.5C57.4438 172.5 57.4438 172.5 57.4438 172.5C57.4438 172.5 57.4438 172.499 57.4438 172.499C57.4438 172.498 57.4438 172.496 57.4438 172.494C57.4438 172.489 57.4438 172.482 57.4438 172.472C57.4438 172.453 57.4438 172.422 57.4438 172.379C57.4438 172.293 57.4438 172.156 57.4438 171.951C57.4438 171.541 57.4437 170.861 57.4437 169.781C57.4437 167.622 57.4437 163.862 57.4438 157.46C57.4438 144.656 57.444 121.286 57.4445 79.0208L60.4445 79.0209Z" fill="white" fill-opacity="0.652"/>
</svg>
