<svg width="160" height="26" viewBox="0 0 160 26" fill="none" xmlns="http://www.w3.org/2000/svg">
<path d="M0 14.3162C0 12.0964 1.7995 10.2969 4.01929 10.2969H5.42688V25.5272H0V14.3162Z" fill="#F84B40"/>
<path d="M7.70312 9.23999C7.70312 7.0202 9.50262 5.2207 11.7224 5.2207H13.13V25.5278H7.70312V9.23999Z" fill="#F84B40"/>
<path d="M21.3087 25V5.57951H24.5002L31.6301 21.7814L38.6242 5.57951H41.6799V25H39.4391V9.06976L32.54 25H30.5572L23.5496 9.06976V25H21.3087ZM49.0216 25H46.4141L54.6577 5.57951H57.4417L65.726 25H62.9419L60.4295 18.8887H54.0058L54.6984 16.8515H59.5875L55.9614 8.0512L49.0216 25ZM85.1275 24.2395C83.5612 24.837 81.8726 25.1358 80.0618 25.1358C73.027 25.1358 69.5096 21.7633 69.5096 15.0181C69.5096 8.63518 72.9048 5.4437 79.6952 5.4437C81.6417 5.4437 83.4525 5.71531 85.1275 6.25854V8.43147C83.4525 7.7977 81.7323 7.48081 79.9668 7.48081C74.6703 7.48081 72.022 9.99325 72.022 15.0181C72.022 20.4052 74.6295 23.0987 79.8445 23.0987C80.6775 23.0987 81.601 22.99 82.615 22.7728V16.1725H85.1275V24.2395ZM91.3692 25V5.57951H93.8816L105.765 21.2245V5.57951H108.141V25H105.629L93.7458 9.21915V25H91.3692ZM117.778 5.57951V25H115.266V5.57951H117.778ZM137.601 5.57951V7.61662H127.415V14.1354H137.125V16.1725H127.415V25H124.903V5.57951H137.601ZM140.719 5.57951H143.503L149.098 15.7243L154.775 5.57951H157.695L150.28 18.2096V25H147.767V18.2096L140.719 5.57951Z" fill="white"/>
</svg>
