<svg width="271" height="84" viewBox="0 0 271 84" fill="none" xmlns="http://www.w3.org/2000/svg">
<path fill-rule="evenodd" clip-rule="evenodd" d="M7 0C3.13401 0 0 3.13401 0 7V22.4234C0 26.2894 3.13401 29.4234 7 29.4234H135C138.866 29.4234 142 26.2894 142 22.4234V7C142 3.13401 138.866 0 135 0H7ZM17.5901 26.2252C24.1255 26.2252 29.4234 20.9273 29.4234 14.3919C29.4234 7.85652 24.1255 2.55856 17.5901 2.55856C11.0547 2.55856 5.75676 7.85652 5.75676 14.3919C5.75676 20.9273 11.0547 26.2252 17.5901 26.2252Z" fill="white"/>
<rect x="24" y="49" width="247" height="40" rx="7" fill="white"/>
</svg>
