<svg width="97" height="18" viewBox="0 0 97 18" fill="none" xmlns="http://www.w3.org/2000/svg">
<path d="M0 9.5792C0 8.24266 1.08348 7.15918 2.42002 7.15918H3.77273V17.7472H0V9.5792Z" fill="#F84B40"/>
<path d="M5.35547 6.04893C5.35547 4.71239 6.43895 3.62891 7.77549 3.62891H9.1282V17.7462H5.35547V6.04893Z" fill="#F84B40"/>
<path d="M14.3901 15V3.3069H16.3117L20.6046 13.0621L24.8158 3.3069H26.6556V15H25.3064V5.40839L21.1525 15H19.9586L15.7393 5.40839V15H14.3901ZM31.0761 15H29.5061L34.4695 3.3069H36.1458L41.1338 15H39.4575L37.9447 11.3204H34.077L34.494 10.0938H37.4378L35.2545 4.79511L31.0761 15ZM52.8154 14.5421C51.8723 14.9019 50.8557 15.0818 49.7654 15.0818C45.5297 15.0818 43.4119 13.0511 43.4119 8.98991C43.4119 5.14672 45.4561 3.22513 49.5446 3.22513C50.7167 3.22513 51.8069 3.38867 52.8154 3.71575V5.02407C51.8069 4.64247 50.7712 4.45168 49.7082 4.45168C46.5191 4.45168 44.9246 5.96442 44.9246 8.98991C44.9246 12.2335 46.4946 13.8552 49.6346 13.8552C50.1361 13.8552 50.6921 13.7898 51.3027 13.659V9.68495H52.8154V14.5421ZM56.5736 15V3.3069H58.0863L65.2412 12.7268V3.3069H66.6722V15H65.1594L58.0045 5.49833V15H56.5736ZM72.4746 3.3069V15H70.9618V3.3069H72.4746ZM84.4097 3.3069V4.53345H78.2769V8.4584H84.1235V9.68495H78.2769V15H76.7642V3.3069H84.4097ZM86.2871 3.3069H87.9634L91.3323 9.41511L94.7503 3.3069H96.5084L92.0437 10.9115V15H90.531V10.9115L86.2871 3.3069Z" fill="white"/>
</svg>
